<?xml version="1.0" encoding="utf-8"?>
<!-- Generator: Adobe Illustrator 18.1.1, SVG Export Plug-In . SVG Version: 6.00 Build 0)  -->
<svg version="1.1" id="Layer_1" xmlns="http://www.w3.org/2000/svg" xmlns:xlink="http://www.w3.org/1999/xlink" x="0px" y="0px"
	 viewBox="259 360.9 94.5 70.7" enable-background="new 259 360.9 94.5 70.7" xml:space="preserve">
<g>
	<g>
		<polygon fill="#0071CE" points="280.6,423.6 270.3,413.3 270.3,377.6 265.8,372.7 268.9,369.3 273.9,369.3 277.2,364.3 
			266.7,364.3 259,372.7 265.3,379.6 265.3,415.3 278.5,428.6 290.1,428.6 285.1,423.6 		"/>
	</g>
	<g>
		<polygon fill="#0071CE" points="332,423.6 342.3,413.3 342.3,377.6 346.8,372.7 343.7,369.3 338.7,369.3 335.4,364.3 346,364.3 
			353.6,372.7 347.3,379.6 347.3,415.3 334,428.6 322.5,428.6 327.5,423.6 		"/>
	</g>
	<polygon fill="#CF0A2C" points="328.2,420.1 284.1,420.1 279.5,415.5 332.8,415.5 	"/>
	<g>
		<polygon fill="#FFFFFF" points="285.7,417.3 286.4,417.3 286.4,418.8 286.9,418.8 286.9,417.3 287.5,417.3 287.5,416.8 
			285.7,416.8 		"/>
		<polygon fill="#FFFFFF" points="289.4,417.5 288.6,417.5 288.6,416.8 288,416.8 288,418.8 288.6,418.8 288.6,418.1 289.4,418.1 
			289.4,418.8 289.9,418.8 289.9,416.8 289.4,416.8 		"/>
		<polygon fill="#FFFFFF" points="291.1,418 292.1,418 292.1,417.5 291.1,417.5 291.1,417.2 292.2,417.2 292.2,416.8 290.5,416.8 
			290.5,418.8 292.2,418.8 292.2,418.4 291.1,418.4 		"/>
		<polygon fill="#FFFFFF" points="293.8,418.8 294.3,418.8 294.3,418.1 295.4,418.1 295.4,417.6 294.3,417.6 294.3,417.3 
			295.4,417.3 295.4,416.8 293.8,416.8 		"/>
		<rect x="295.9" y="416.8" fill="#FFFFFF" width="0.6" height="2"/>
		<polygon fill="#FFFFFF" points="297,417.3 297.6,417.3 297.6,418.8 298.2,418.8 298.2,417.3 298.8,417.3 298.8,416.8 297,416.8 		
			"/>
		<polygon fill="#FFFFFF" points="299.2,417.3 299.8,417.3 299.8,418.8 300.4,418.8 300.4,417.3 301,417.3 301,416.8 299.2,416.8 		
			"/>
		<polygon fill="#FFFFFF" points="302,418 303.1,418 303.1,417.5 302,417.5 302,417.2 303.1,417.2 303.1,416.8 301.5,416.8 
			301.5,418.8 303.2,418.8 303.2,418.4 302,418.4 		"/>
		<path fill="#FFFFFF" d="M304.6,417.5c-0.3-0.1-0.4-0.1-0.4-0.2l0,0c0-0.1,0.1-0.1,0.2-0.1c0.2,0,0.4,0.1,0.6,0.2l0.3-0.4
			c-0.3-0.2-0.5-0.3-0.8-0.3c-0.5,0-0.8,0.3-0.8,0.6l0,0c0,0.4,0.3,0.6,0.8,0.6c0.3,0.1,0.3,0.1,0.3,0.2l0,0c0,0.1-0.1,0.1-0.3,0.1
			c-0.3,0-0.4-0.1-0.7-0.3l-0.3,0.4c0.3,0.3,0.6,0.3,1,0.3c0.5,0,0.8-0.3,0.8-0.7l0,0C305.4,417.8,305,417.7,304.6,417.5"/>
		<polygon fill="#FFFFFF" points="305.7,417.3 306.3,417.3 306.3,418.8 306.9,418.8 306.9,417.3 307.5,417.3 307.5,416.8 
			305.7,416.8 		"/>
		<path fill="#FFFFFF" d="M310.1,416.7c-0.6,0-1.1,0.5-1.1,1.1l0,0c0,0.6,0.4,1.1,1.1,1.1c0.6,0,1.1-0.5,1.1-1.1l0,0
			C311.2,417.2,310.7,416.7,310.1,416.7 M310.6,417.8c0,0.3-0.2,0.6-0.5,0.6c-0.3,0-0.5-0.3-0.5-0.6l0,0c0-0.3,0.2-0.6,0.5-0.6
			C310.4,417.2,310.6,417.5,310.6,417.8L310.6,417.8z"/>
		<polygon fill="#FFFFFF" points="313.1,417.9 312.2,416.8 311.7,416.8 311.7,418.8 312.3,418.8 312.3,417.7 313.2,418.8 
			313.7,418.8 313.7,416.8 313.1,416.8 		"/>
		<polygon fill="#FFFFFF" points="315.9,418 316.9,418 316.9,417.5 315.9,417.5 315.9,417.2 317,417.2 317,416.8 315.4,416.8 
			315.4,418.8 317,418.8 317,418.4 315.9,418.4 		"/>
		<path fill="#FFFFFF" d="M318.2,416.8l-0.9,2.1h0.6l0.1-0.4h0.8l0.1,0.4h0.6l-0.9-2.1H318.2z M318.3,418l0.3-0.6l0.3,0.6H318.3z"/>
		<path fill="#FFFFFF" d="M322,417.5L322,417.5c0-0.2-0.1-0.4-0.2-0.5s-0.4-0.3-0.7-0.3h-1v2h0.6v-0.6h0.3l0,0l0.4,0.6h0.6l-0.5-0.7
			C321.8,418,322,417.8,322,417.5 M321.4,417.5c0,0.1-0.1,0.3-0.3,0.3h-0.4v-0.5h0.4C321.3,417.3,321.4,417.4,321.4,417.5
			L321.4,417.5z"/>
		<polygon fill="#FFFFFF" points="322.4,417.3 323,417.3 323,418.8 323.6,418.8 323.6,417.3 324.2,417.3 324.2,416.8 322.4,416.8 		
			"/>
		<polygon fill="#FFFFFF" points="326,417.5 325.3,417.5 325.3,416.8 324.7,416.8 324.7,418.8 325.3,418.8 325.3,418.1 326,418.1 
			326,418.8 326.6,418.8 326.6,416.8 326,416.8 		"/>
	</g>
	<g>
		<path fill="#FFFFFF" d="M326.7,416.9v-0.1h0.6v0.1H327v0.6h-0.1v-0.6H326.7z M327.6,416.8l0.2,0.5l0.2-0.5h0.2v0.8h-0.1V417
			l-0.2,0.6h-0.1l-0.2-0.6v0.6h-0.1v-0.8H327.6z"/>
	</g>
	<g>
		<path fill="#0071CE" d="M319.8,371.7c0.1,0,0.3,0,0.4,0c2-0.1,3.6-1.3,3.6-3.4v-1.8c0-2.2-1.5-3.4-3.6-3.4c-0.1,0-0.3,0-0.4,0
			c-2.1,0.1-3.6,1.3-3.6,3.4v1.8C316.3,370.4,317.7,371.6,319.8,371.7 M318.3,366.4c0-1.1,0.8-1.6,1.6-1.7c0.1,0,0.2,0,0.3,0
			c0.8,0.1,1.6,0.4,1.6,1.7v1.8c0,1.1-0.8,1.6-1.6,1.7c-0.1,0-0.3,0-0.3,0c-0.8-0.1-1.6-0.5-1.6-1.7V366.4z"/>
		<path fill="#0071CE" d="M324.9,371.5h2v-3.8l3.4,3.8h2.5l-3.9-4.3l3.7-4.2c0,0-2.4,0-2.5,0c-0.2,0.2-3.2,3.6-3.2,3.6v-5.7h-2
			V371.5z"/>
		<path fill="#0071CE" d="M294,371.7c0.2,0,0.3,0,0.4,0c2.5,0,3.4-1.3,3.5-2.7h-1.8c-0.1,0.3-0.1,1-1.7,1c-0.3,0-0.6-0.1-1-0.1
			c-1.1-0.4-1-1.8-1-1.9h5.5v-1.5c0-2.2-1.5-3.4-3.6-3.4H294c-2.1,0.1-3.6,1.3-3.6,3.4v1.8C290.4,370.4,292,371.6,294,371.7
			 M292.5,366.3c0-1.1,0.8-1.5,1.6-1.6c0.1,0,0.2,0,0.3,0c0.9,0.1,1.7,0.5,1.7,1.6v0.1h-3.5V366.3z"/>
		<path fill="#0071CE" d="M302.6,371.7c0.2,0,0.3,0,0.4,0c2.5,0,3.4-1.3,3.5-2.7h-1.8c-0.1,0.3-0.1,1-1.7,1c-0.3,0-0.6-0.1-1-0.1
			c-1.1-0.4-1-1.8-1-1.9h5.5v-1.5c0-2.2-1.5-3.4-3.6-3.4h-0.4c-2.1,0.1-3.6,1.3-3.6,3.4v1.8C299,370.4,300.5,371.6,302.6,371.7
			 M301,366.3c0-1.1,0.8-1.5,1.6-1.6c0.1,0,0.2,0,0.3,0c0.9,0.1,1.7,0.5,1.7,1.6v0.1H301C301,366.4,301,366.4,301,366.3"/>
		<path fill="#0071CE" d="M307.7,371.5h0.4c0,0,0.9-0.5,1-0.5c0.1,0.1,1,0.8,2.2,0.8c0.1,0,0.3,0,0.4,0c2-0.1,3.6-1.3,3.6-3.4v-1.8
			c0-2.1-1.5-3.4-3.6-3.4c-1,0-1.6,0.3-2,0.6c0-0.1,0-2.6,0-2.6h-2V371.5z M309.7,366.5c0-1.1,0.8-1.6,1.6-1.7c0.1,0,0.2,0,0.3,0
			c0.8,0.1,1.6,0.4,1.6,1.7v1.8c0,1.1-0.8,1.6-1.6,1.7c-0.1,0-0.3,0-0.3,0c-0.8-0.1-1.6-0.5-1.6-1.7V366.5z"/>
		<path fill="#0071CE" d="M283.3,371.5v-4.7l4.2,4.7h2.6l-3.9-4.3c0.2,0,0.4,0,0.6,0c1.3,0,3-0.8,3-3c0-2.6-2.2-3.3-4-3.3h-4.6v10.5
			L283.3,371.5L283.3,371.5z M283.3,362.7h2.5c1.1,0,2.2,0.4,2.2,1.5s-0.6,1.5-2.2,1.5h-2.5V362.7z"/>
	</g>
	<g>
		<g>
			<g>
				<path fill="#CF0A2C" d="M300.6,382.1c0,1.4,0.4,2.7,2.2,3.6c1.9,1,2.7,1.3,2.7,2.5c0,0.8-0.3,1-0.8,1c-0.5,0-0.9-0.3-0.9-0.7
					v-1.1h-3.3v1.3c0,1.9,1.6,3.2,4.3,3.2c3,0,4.2-1.7,4.2-3.5c0-1.3-0.4-3-3.1-4.3c-1.4-0.8-2-0.8-2-1.8c0-0.6,0.3-0.9,0.8-0.9
					c0.5,0,0.8,0.3,0.8,0.7v1h3.3v-1.2c0-1.9-1.7-3.2-4.1-3.2C302.5,378.6,300.6,379.4,300.6,382.1"/>
				<path fill="#CF0A2C" d="M295.2,378.6c-2.4,0-4.4,1.3-4.4,3.2v6.8c0,1.9,2,3.2,4.4,3.2c2.4,0,4.4-1.3,4.4-3.2v-6.8
					C299.6,379.8,297.6,378.6,295.2,378.6 M295.9,388.4c0,0.4-0.4,0.6-0.8,0.6c-0.4,0-0.8-0.2-0.8-0.6v-6.5c0-0.4,0.3-0.6,0.8-0.6
					s0.8,0.2,0.8,0.6V388.4z"/>
				<path fill="#CF0A2C" d="M339.3,381.4v-2.6h-1.9v-2.2h-3.6v2.2h-1.6v2.6h1.6v6.9c0,1.7,1.3,3.3,3.6,3.3h1.7v-2.9h-1
					c-0.4,0-0.8-0.3-0.8-0.6v-6.6L339.3,381.4L339.3,381.4z"/>
				<rect x="327.7" y="378.9" fill="#CF0A2C" width="3.6" height="12.7"/>
				<path fill="#CF0A2C" d="M309.9,382.1c0,1.4,0.4,2.7,2.2,3.6c1.9,1,2.7,1.3,2.7,2.5c0,0.8-0.3,1-0.8,1c-0.5,0-0.9-0.3-0.9-0.7
					v-1.1h-3.3v1.3c0,1.9,1.6,3.2,4.3,3.2c3,0,4.2-1.7,4.2-3.5c0-1.3-0.4-3-3.1-4.3c-1.4-0.8-2-0.8-2-1.8c0-0.6,0.3-0.9,0.8-0.9
					c0.5,0,0.8,0.3,0.8,0.7v1h3.3v-1.2c0-1.9-1.7-3.2-4.1-3.2C311.8,378.6,309.9,379.4,309.9,382.1"/>
				<polygon fill="#CF0A2C" points="326.8,377.4 326.8,374.3 319.3,374.3 319.3,391.5 323.1,391.5 323.1,384.5 325.9,384.5 
					325.9,381.3 323.1,381.3 323.1,377.4 				"/>
				<path fill="#CF0A2C" d="M282.3,388.3V385h-3.8v2.8c0,0.4-0.4,0.8-0.8,0.8c-0.4,0-0.8-0.3-0.8-0.8v-9.6c0-0.4,0.3-0.8,0.8-0.8
					c0.4,0,0.8,0.3,0.8,0.8v2.8h3.8v-3.3c0-1.7-1.8-3.6-4.5-3.6c-2.8,0-4.7,1.8-4.7,3.6v10.7c0,1.7,1.9,3.6,4.7,3.6
					C280.5,391.9,282.3,390,282.3,388.3"/>
				<rect x="327.7" y="374.3" fill="#CF0A2C" width="3.6" height="3.1"/>
				<path fill="#CF0A2C" d="M287.1,379.9l-0.3-1.3h-3.4v12.9h3.6v-7.6c0-1.1,1-2.3,3-2.3v-3.1C288.3,378.6,287.6,379.2,287.1,379.9"
					/>
			</g>
			<g>
				<path fill="#CF0A2C" d="M340.9,379.4c0.4,0,0.8,0.3,0.8,0.8s-0.3,0.8-0.8,0.8s-0.8-0.3-0.8-0.8
					C340.1,379.7,340.5,379.4,340.9,379.4z M340.9,380.8c0.3,0,0.6-0.3,0.6-0.6c0-0.3-0.3-0.6-0.6-0.6s-0.6,0.3-0.6,0.6
					C340.3,380.5,340.6,380.8,340.9,380.8z M340.6,379.7h0.3c0.1,0,0.3,0.1,0.3,0.3s-0.1,0.2-0.1,0.2l0,0c0,0,0,0,0,0.1l0.1,0.3
					h-0.1l-0.1-0.3h-0.1v0.3h-0.2V379.7z M340.9,380.1c0.1,0,0.1-0.1,0.1-0.1s-0.1-0.1-0.1-0.1h-0.1v0.3H340.9z"/>
			</g>
		</g>
		<g>
			<path fill="#CF0A2C" d="M273.7,410.2c-0.6-0.7-0.9-1.7-0.9-2.9v-8.1c0-1.1,0.3-2,0.9-2.7c0.4-0.4,0.9-0.8,1.5-1
				c0.5-0.2,1-0.3,1.6-0.3h5.9v4.2H277v7.9h3.5v-2.3H279v-3.3h5v9.8h-7.2c-0.6,0-1.1-0.1-1.6-0.3C274.6,411,274.1,410.7,273.7,410.2
				z"/>
			<path fill="#CF0A2C" d="M289.4,411.5h-4.3l4.3-16.3h4.6l4.3,16.3h-4.3l-0.5-2.5H290L289.4,411.5z M290.7,405.7h2.2l-1.1-5.2
				L290.7,405.7z"/>
			<path fill="#CF0A2C" d="M310.5,395.2h4.3v16.3h-4.2v-6.3l-2.5,6.3h-1.9l-2.5-6.3v6.3h-4.2v-16.3h4.3l3.3,8.5L310.5,395.2z"/>
			<path fill="#CF0A2C" d="M326.7,411.5h-9.8v-16.3h9.9v4.2H321v2.3h5.2v3.3H321v2.3h5.7L326.7,411.5L326.7,411.5z"/>
			<path fill="#CF0A2C" d="M332.5,395.2h6.6v4.2h-6.4v1.7l6.4,1.8v3.7c0,1.1-0.3,2.2-0.7,2.9c-0.3,0.6-0.8,1-1.3,1.3
				c-0.6,0.3-1.2,0.5-2,0.5h-6.6v-4.2h6.4v-1.7l-6.4-1.9v-4.3c0-1.2,0.3-2.2,0.9-2.9c0.4-0.4,0.9-0.8,1.5-1
				C331.4,395.3,331.9,395.2,332.5,395.2z"/>
		</g>
	</g>
	<g>
		<path fill="#0071CE" d="M299.2,424.1c0.3,0.4,0.4,0.8,0.4,1.5v2.1l-3.2,1v0.9h3.2v2h-5.2v-4.2l3.2-1v-0.9h-3.2v-2h3.3
			c0.3,0,0.6,0.1,0.8,0.1C298.8,423.7,299.1,423.9,299.2,424.1z"/>
		<path fill="#0071CE" d="M306.1,424.1c0.3,0.4,0.4,0.8,0.4,1.5v3.9c0,0.6-0.1,1.1-0.4,1.5c-0.2,0.3-0.4,0.4-0.7,0.5
			c-0.3,0.1-0.5,0.1-0.8,0.1h-1.6c-0.3,0-0.6-0.1-0.8-0.1c-0.3-0.1-0.5-0.3-0.7-0.5c-0.3-0.4-0.4-0.8-0.4-1.5v-3.9
			c0-0.6,0.1-1.1,0.4-1.5c0.2-0.3,0.4-0.4,0.7-0.5c0.3-0.1,0.5-0.1,0.8-0.1h1.6c0.3,0,0.6,0.1,0.8,0.1
			C305.7,423.7,305.9,423.9,306.1,424.1z M304.5,425.5h-1.4v3.9h1.4V425.5z"/>
		<path fill="#0071CE" d="M308,423.5h3.1v8h-2v-6h-1L308,423.5L308,423.5z"/>
		<path fill="#0071CE" d="M317.4,427.6c0.3,0.4,0.4,0.9,0.4,1.5v0.2c0,0.6-0.1,1.1-0.3,1.5c-0.2,0.3-0.4,0.5-0.6,0.6
			c-0.3,0.2-0.6,0.3-1,0.3h-1.6c-0.3,0-0.6-0.1-0.8-0.1c-0.3-0.1-0.5-0.3-0.7-0.5c-0.3-0.4-0.4-0.8-0.4-1.5v-3.9
			c0-0.6,0.1-1.1,0.4-1.5c0.2-0.3,0.4-0.4,0.7-0.5c0.3-0.1,0.5-0.1,0.8-0.1h2.8v2h-2.7v1.1h1.4c0.3,0,0.6,0.1,1,0.3
			C317,427,317.2,427.2,317.4,427.6z M315.8,428.3h-1.3v1.1h1.3V428.3z"/>
	</g>
</g>
</svg>
